<?xml version="1.0" encoding="UTF-8" standalone="no"?>
<!DOCTYPE svg PUBLIC "-//W3C//DTD SVG 1.1//EN"
 "http://www.w3.org/Graphics/SVG/1.1/DTD/svg11.dtd">
<!-- Generated by graphviz version 2.43.0 (0)
 -->
<!-- Title: fr.softsf.vault.NativeVaultTest.givenStoredSecret_whenRemoveSecret_thenSecretIsDeleted Pages: 1 -->
<!--zoomable 188 -->

<svg id="main" version="1.1" xmlns="http://www.w3.org/2000/svg" xmlns:xlink="http://www.w3.org/1999/xlink" xml:space="preserve" onload="init(evt)">
<style type="text/css"><![CDATA[
.node, .edge {opacity: 0.7;}
.node.selected, .edge.selected {opacity: 1;}
.edge:hover path { stroke: red; }
.edge:hover polygon { stroke: red; fill: red; }
]]></style>

<defs>
  <circle id="rim" cx="0" cy="0" r="7"/>
  <circle id="rim2" cx="0" cy="0" r="3.5"/>
  <g id="zoomPlus">
    <use xlink:href="#rim" fill="#404040"><set attributeName="fill" to="#808080" begin="zoomplus.mouseover" end="zoomplus.mouseout"/></use>
    <path d="M-4,0h8M0,-4v8" fill="none" stroke="white" stroke-width="1.5" pointer-events="none"/>
  </g>
  <g id="zoomMin">
    <use xlink:href="#rim" fill="#404040"><set attributeName="fill" to="#808080" begin="zoomminus.mouseover" end="zoomminus.mouseout"/></use>
    <path d="M-4,0h8" fill="none" stroke="white" stroke-width="1.5" pointer-events="none"/>
  </g>
  <g id="arrowUp" transform="translate(30 24)">
    <use xlink:href="#rim"/>
    <path pointer-events="none" fill="none" stroke="white" stroke-width="1.5" d="M0,-3.0v7 M-2.5,-0.5L0,-3.0L2.5,-0.5"/>
  </g>
  <g id="arrowRight" transform="rotate(90) translate(36 -43)">
    <use xlink:href="#rim"/>
    <path pointer-events="none" fill="none" stroke="white" stroke-width="1.5" d="M0,-3.0v7 M-2.5,-0.5L0,-3.0L2.5,-0.5"/>
  </g>
  <g id="arrowDown" transform="rotate(180) translate(-30 -48)">
    <use xlink:href="#rim"/>
    <path pointer-events="none" fill="none" stroke="white" stroke-width="1.5" d="M0,-3.0v7 M-2.5,-0.5L0,-3.0L2.5,-0.5"/>
  </g>
  <g id="arrowLeft" transform="rotate(270) translate(-36 17)">
    <use xlink:href="#rim"/>
    <path pointer-events="none" fill="none" stroke="white" stroke-width="1.5" d="M0,-3.0v7 M-2.5,-0.5L0,-3.0L2.5,-0.5"/>
  </g>
  <g id="resetDef">
    <use xlink:href="#rim2" fill="#404040"><set attributeName="fill" to="#808080" begin="reset.mouseover" end="reset.mouseout"/></use>
  </g>
</defs>
<script type="application/ecmascript">
var viewWidth = 825;
var viewHeight = 188;
var sectionId = 'dynsection-5';
</script>
<script type="application/ecmascript" xlink:href="svg.min.js"/>
<svg id="graph" class="graph">
<g id="viewport">
<title>fr.softsf.vault.NativeVaultTest.givenStoredSecret_whenRemoveSecret_thenSecretIsDeleted</title>
<!-- Node1 -->
<g id="Node000001" class="node">
<title>Node1</title>
<g id="a_Node000001"><a xlink:title="Tests removing a stored secret successfully.">
<polygon fill="#999999" stroke="#666666" points="200,-101.5 0,-101.5 0,-60.5 200,-60.5 200,-101.5"/>
<text text-anchor="start" x="8" y="-89.5" font-family="Helvetica,sans-Serif" font-size="10.00">fr.softsf.vault.NativeVault</text>
<text text-anchor="start" x="8" y="-78.5" font-family="Helvetica,sans-Serif" font-size="10.00">Test.givenStoredSecret_whenRemove</text>
<text text-anchor="middle" x="100" y="-67.5" font-family="Helvetica,sans-Serif" font-size="10.00">Secret_thenSecretIsDeleted</text>
</a>
</g>
</g>
<!-- Node2 -->
<g id="Node000002" class="node">
<title>Node2</title>
<g id="a_Node000002"><a xlink:href="classfr_1_1softsf_1_1vault_1_1NativeVault.html#a749f572dec5d3a6f0bf3fffe4566d0e8" target="_top" xlink:title="Checks if a secret exists in the native credential store using a string key.">
<polygon fill="white" stroke="#666666" points="407,-162 246,-162 246,-132 407,-132 407,-162"/>
<text text-anchor="start" x="254" y="-150" font-family="Helvetica,sans-Serif" font-size="10.00">fr.softsf.vault.NativeVault.has</text>
<text text-anchor="middle" x="326.5" y="-139" font-family="Helvetica,sans-Serif" font-size="10.00">Secret</text>
</a>
</g>
</g>
<!-- Node1&#45;&gt;Node2 -->
<g id="edge1_Node000001_Node000002" class="edge">
<title>Node1&#45;&gt;Node2</title>
<g id="a_edge1_Node000001_Node000002"><a xlink:title=" ">
<path fill="none" stroke="#63b8ff" d="M165.39,-101.6C187.7,-108.59 212.89,-116.31 236,-123 243.2,-125.08 250.74,-127.2 258.26,-129.28"/>
<polygon fill="#63b8ff" stroke="#63b8ff" points="257.54,-132.71 268.11,-131.97 259.39,-125.96 257.54,-132.71"/>
</a>
</g>
</g>
<!-- Node5 -->
<g id="Node000005" class="node">
<title>Node5</title>
<g id="a_Node000005"><a xlink:href="classfr_1_1softsf_1_1vault_1_1NativeVault.html#a10f9ce8ca17b9b16473b938999954eb6" target="_top" xlink:title="Deletes a secret from the native credential store using a string key.">
<polygon fill="white" stroke="#666666" points="417,-96 236,-96 236,-66 417,-66 417,-96"/>
<text text-anchor="start" x="244" y="-84" font-family="Helvetica,sans-Serif" font-size="10.00">fr.softsf.vault.NativeVault.remove</text>
<text text-anchor="middle" x="326.5" y="-73" font-family="Helvetica,sans-Serif" font-size="10.00">Secret</text>
</a>
</g>
</g>
<!-- Node1&#45;&gt;Node5 -->
<g id="edge5_Node000001_Node000005" class="edge">
<title>Node1&#45;&gt;Node5</title>
<g id="a_edge5_Node000001_Node000005"><a xlink:title=" ">
<path fill="none" stroke="#63b8ff" d="M200.12,-81C208.56,-81 217.09,-81 225.53,-81"/>
<polygon fill="#63b8ff" stroke="#63b8ff" points="225.77,-84.5 235.77,-81 225.77,-77.5 225.77,-84.5"/>
</a>
</g>
</g>
<!-- Node6 -->
<g id="Node000006" class="node">
<title>Node6</title>
<g id="a_Node000006"><a xlink:href="classfr_1_1softsf_1_1vault_1_1NativeVault.html#a552245265cbad2a517317635ba750f0a" target="_top" xlink:title="Stores or updates a secret securely in the native credential store using string parameters.">
<polygon fill="white" stroke="#666666" points="405.5,-30 247.5,-30 247.5,0 405.5,0 405.5,-30"/>
<text text-anchor="start" x="255.5" y="-18" font-family="Helvetica,sans-Serif" font-size="10.00">fr.softsf.vault.NativeVault.set</text>
<text text-anchor="middle" x="326.5" y="-7" font-family="Helvetica,sans-Serif" font-size="10.00">Secret</text>
</a>
</g>
</g>
<!-- Node1&#45;&gt;Node6 -->
<g id="edge8_Node000001_Node000006" class="edge">
<title>Node1&#45;&gt;Node6</title>
<g id="a_edge8_Node000001_Node000006"><a xlink:title=" ">
<path fill="none" stroke="#63b8ff" d="M170.8,-60.48C200.74,-51.68 235.4,-41.49 264.31,-32.99"/>
<polygon fill="#63b8ff" stroke="#63b8ff" points="265.68,-36.23 274.29,-30.06 263.7,-29.52 265.68,-36.23"/>
</a>
</g>
</g>
<!-- Node2&#45;&gt;Node2 -->
<g id="edge4_Node000002_Node000002" class="edge">
<title>Node2&#45;&gt;Node2</title>
<g id="a_edge4_Node000002_Node000002"><a xlink:title=" ">
<path fill="none" stroke="#63b8ff" d="M288.88,-162.28C280.52,-171.41 293.06,-180 326.5,-180 346.35,-180 358.84,-176.97 363.96,-172.6"/>
<polygon fill="#63b8ff" stroke="#63b8ff" points="367.46,-172.33 364.12,-162.28 360.46,-172.22 367.46,-172.33"/>
</a>
</g>
</g>
<!-- Node3 -->
<g id="Node000003" class="node">
<title>Node3</title>
<g id="a_Node000003"><a xlink:href="classfr_1_1softsf_1_1vault_1_1NativeVault.html#a90c802cfe36372acf18721597e6a9705" target="_top" xlink:title="Ensures that a strategy is available before performing operations.">
<polygon fill="white" stroke="#666666" points="629,-96 453,-96 453,-66 629,-66 629,-96"/>
<text text-anchor="start" x="461" y="-84" font-family="Helvetica,sans-Serif" font-size="10.00">fr.softsf.vault.NativeVault.ensure</text>
<text text-anchor="middle" x="541" y="-73" font-family="Helvetica,sans-Serif" font-size="10.00">Usable</text>
</a>
</g>
</g>
<!-- Node2&#45;&gt;Node3 -->
<g id="edge2_Node000002_Node000003" class="edge">
<title>Node2&#45;&gt;Node3</title>
<g id="a_edge2_Node000002_Node000003"><a xlink:title=" ">
<path fill="none" stroke="#63b8ff" d="M385.91,-131.94C396.3,-129.09 407,-126.05 417,-123 440.69,-115.79 466.68,-107.04 488.64,-99.4"/>
<polygon fill="#63b8ff" stroke="#63b8ff" points="489.82,-102.69 498.1,-96.09 487.51,-96.09 489.82,-102.69"/>
</a>
</g>
</g>
<!-- Node4 -->
<g id="Node000004" class="node">
<title>Node4</title>
<g id="a_Node000004"><a xlink:href="classfr_1_1softsf_1_1vault_1_1NativeVault.html#a4e57889465882f72de42a1922e8ad3c6" target="_top" xlink:title="Checks if a native vault strategy is available and verified.">
<polygon fill="white" stroke="#666666" points="817,-96 665,-96 665,-66 817,-66 817,-96"/>
<text text-anchor="start" x="673" y="-84" font-family="Helvetica,sans-Serif" font-size="10.00">fr.softsf.vault.NativeVault.is</text>
<text text-anchor="middle" x="741" y="-73" font-family="Helvetica,sans-Serif" font-size="10.00">Usable</text>
</a>
</g>
</g>
<!-- Node3&#45;&gt;Node4 -->
<g id="edge3_Node000003_Node000004" class="edge">
<title>Node3&#45;&gt;Node4</title>
<g id="a_edge3_Node000003_Node000004"><a xlink:title=" ">
<path fill="none" stroke="#63b8ff" d="M629.13,-81C637.62,-81 646.22,-81 654.68,-81"/>
<polygon fill="#63b8ff" stroke="#63b8ff" points="654.92,-84.5 664.92,-81 654.92,-77.5 654.92,-84.5"/>
</a>
</g>
</g>
<!-- Node5&#45;&gt;Node3 -->
<g id="edge6_Node000005_Node000003" class="edge">
<title>Node5&#45;&gt;Node3</title>
<g id="a_edge6_Node000005_Node000003"><a xlink:title=" ">
<path fill="none" stroke="#63b8ff" d="M417,-81C425.56,-81 434.27,-81 442.9,-81"/>
<polygon fill="#63b8ff" stroke="#63b8ff" points="442.98,-84.5 452.98,-81 442.98,-77.5 442.98,-84.5"/>
</a>
</g>
</g>
<!-- Node5&#45;&gt;Node5 -->
<g id="edge7_Node000005_Node000005" class="edge">
<title>Node5&#45;&gt;Node5</title>
<g id="a_edge7_Node000005_Node000005"><a xlink:title=" ">
<path fill="none" stroke="#63b8ff" d="M288.88,-96.28C280.52,-105.41 293.06,-114 326.5,-114 346.35,-114 358.84,-110.97 363.96,-106.6"/>
<polygon fill="#63b8ff" stroke="#63b8ff" points="367.46,-106.33 364.12,-96.28 360.46,-106.22 367.46,-106.33"/>
</a>
</g>
</g>
<!-- Node6&#45;&gt;Node3 -->
<g id="edge9_Node000006_Node000003" class="edge">
<title>Node6&#45;&gt;Node3</title>
<g id="a_edge9_Node000006_Node000003"><a xlink:title=" ">
<path fill="none" stroke="#63b8ff" d="M375.99,-30.06C407.43,-39.82 448.56,-52.6 481.77,-62.91"/>
<polygon fill="#63b8ff" stroke="#63b8ff" points="480.77,-66.27 491.36,-65.89 482.84,-59.58 480.77,-66.27"/>
</a>
</g>
</g>
<!-- Node6&#45;&gt;Node6 -->
<g id="edge10_Node000006_Node000006" class="edge">
<title>Node6&#45;&gt;Node6</title>
<g id="a_edge10_Node000006_Node000006"><a xlink:title=" ">
<path fill="none" stroke="#63b8ff" d="M288.88,-30.28C280.52,-39.41 293.06,-48 326.5,-48 346.35,-48 358.84,-44.97 363.96,-40.6"/>
<polygon fill="#63b8ff" stroke="#63b8ff" points="367.46,-40.33 364.12,-30.28 360.46,-40.22 367.46,-40.33"/>
</a>
</g>
</g>
</g>
</svg>

<g id="navigator" transform="translate(0 0)" fill="#404254">
  <rect fill="#f2f5e9" fill-opacity="0.5" stroke="#606060" stroke-width=".5" x="0" y="0" width="60" height="60"/>
  <use id="zoomplus" xlink:href="#zoomPlus" x="17" y="9" onmousedown="handleZoom(evt,'in')"/>
  <use id="zoomminus" xlink:href="#zoomMin" x="42" y="9" onmousedown="handleZoom(evt,'out')"/>
  <use id="reset" xlink:href="#resetDef" x="30" y="36" onmousedown="handleReset()"/>
   <use id="arrowup" xlink:href="#arrowUp" x="0" y="0" onmousedown="handlePan(0,-1)"/>
  <use id="arrowright" xlink:href="#arrowRight" x="0" y="0" onmousedown="handlePan(1,0)"/>
  <use id="arrowdown" xlink:href="#arrowDown" x="0" y="0" onmousedown="handlePan(0,1)"/>
  <use id="arrowleft" xlink:href="#arrowLeft" x="0" y="0" onmousedown="handlePan(-1,0)"/>
</g>
<svg viewBox="0 0 15 15" width="100%" height="30px" preserveAspectRatio="xMaxYMin meet">
 <g id="arrow_out" transform="scale(0.3 0.3)">
  <a xlink:href="classfr_1_1softsf_1_1vault_1_1NativeVaultTest_a26cbfaedd49028c2c19633b5aabc8bba_cgraph_org.svg" target="_base">
   <rect id="button" ry="5" rx="5" y="6" x="6" height="38" width="38"
        fill="#f2f5e9" fill-opacity="0.5" stroke="#606060" stroke-width="1.0"/>
   <path id="arrow"
     d="M 11.500037,31.436501 C 11.940474,20.09759 22.043105,11.32322 32.158766,21.979434 L 37.068811,17.246167 C 37.068811,17.246167 37.088388,32 37.088388,32 L 22.160133,31.978069 C 22.160133,31.978069 26.997745,27.140456 26.997745,27.140456 C 18.528582,18.264221 13.291696,25.230495 11.500037,31.436501 z"
     style="fill:#404040;"/>
  </a>
 </g>
</svg>

<style type='text/css'>
<![CDATA[
[data-mouse-over-selected='false'] { opacity: 0.7; }
[data-mouse-over-selected='true']  { opacity: 1.0; }
]]>
</style>
<script type="application/ecmascript"><![CDATA[
document.addEventListener('DOMContentLoaded', (event) => {
  highlightEdges();
  highlightAdjacentNodes();
});
]]></script>
</svg>
