<?xml version="1.0" encoding="UTF-8" standalone="no"?>
<!DOCTYPE svg PUBLIC "-//W3C//DTD SVG 1.1//EN"
 "http://www.w3.org/Graphics/SVG/1.1/DTD/svg11.dtd">
<!-- Generated by graphviz version 2.43.0 (0)
 -->
<!-- Title: fr.softsf.vault.NativeVault.NativeVault Pages: 1 -->
<svg width="551pt" height="38pt"
 viewBox="0.00 0.00 551.00 38.00" xmlns="http://www.w3.org/2000/svg" xmlns:xlink="http://www.w3.org/1999/xlink">
<g id="graph0" class="graph" transform="scale(1 1) rotate(0) translate(4 34)">
<title>fr.softsf.vault.NativeVault.NativeVault</title>
<!-- Node1 -->
<g id="Node000001" class="node">
<title>Node1</title>
<g id="a_Node000001"><a xlink:title="Initializes a new instance of the native vault facade.">
<polygon fill="#999999" stroke="#666666" points="143,-30 0,-30 0,0 143,0 143,-30"/>
<text text-anchor="start" x="8" y="-18" font-family="Helvetica,sans-Serif" font-size="10.00">fr.softsf.vault.NativeVault.</text>
<text text-anchor="middle" x="71.5" y="-7" font-family="Helvetica,sans-Serif" font-size="10.00">NativeVault</text>
</a>
</g>
</g>
<!-- Node2 -->
<g id="Node000002" class="node">
<title>Node2</title>
<g id="a_Node000002"><a xlink:href="classfr_1_1softsf_1_1vault_1_1NativeVault.html#a90c802cfe36372acf18721597e6a9705" target="_top" xlink:title="Ensures that a strategy is available before performing operations.">
<polygon fill="white" stroke="#666666" points="355,-30 179,-30 179,0 355,0 355,-30"/>
<text text-anchor="start" x="187" y="-18" font-family="Helvetica,sans-Serif" font-size="10.00">fr.softsf.vault.NativeVault.ensure</text>
<text text-anchor="middle" x="267" y="-7" font-family="Helvetica,sans-Serif" font-size="10.00">Usable</text>
</a>
</g>
</g>
<!-- Node1&#45;&gt;Node2 -->
<g id="edge1_Node000001_Node000002" class="edge">
<title>Node1&#45;&gt;Node2</title>
<g id="a_edge1_Node000001_Node000002"><a xlink:title=" ">
<path fill="none" stroke="#63b8ff" d="M143.18,-15C151.48,-15 160.06,-15 168.65,-15"/>
<polygon fill="#63b8ff" stroke="#63b8ff" points="168.71,-18.5 178.71,-15 168.71,-11.5 168.71,-18.5"/>
</a>
</g>
</g>
<!-- Node3 -->
<g id="Node000003" class="node">
<title>Node3</title>
<g id="a_Node000003"><a xlink:href="classfr_1_1softsf_1_1vault_1_1NativeVault.html#a4e57889465882f72de42a1922e8ad3c6" target="_top" xlink:title="Checks if a native vault strategy is available and verified.">
<polygon fill="white" stroke="#666666" points="543,-30 391,-30 391,0 543,0 543,-30"/>
<text text-anchor="start" x="399" y="-18" font-family="Helvetica,sans-Serif" font-size="10.00">fr.softsf.vault.NativeVault.is</text>
<text text-anchor="middle" x="467" y="-7" font-family="Helvetica,sans-Serif" font-size="10.00">Usable</text>
</a>
</g>
</g>
<!-- Node2&#45;&gt;Node3 -->
<g id="edge2_Node000002_Node000003" class="edge">
<title>Node2&#45;&gt;Node3</title>
<g id="a_edge2_Node000002_Node000003"><a xlink:title=" ">
<path fill="none" stroke="#63b8ff" d="M355.13,-15C363.62,-15 372.22,-15 380.68,-15"/>
<polygon fill="#63b8ff" stroke="#63b8ff" points="380.92,-18.5 390.92,-15 380.92,-11.5 380.92,-18.5"/>
</a>
</g>
</g>
</g>
</svg>
