<?xml version="1.0" encoding="UTF-8" standalone="no"?>
<!DOCTYPE svg PUBLIC "-//W3C//DTD SVG 1.1//EN"
 "http://www.w3.org/Graphics/SVG/1.1/DTD/svg11.dtd">
<!-- Generated by graphviz version 2.43.0 (0)
 -->
<!-- Title: fr.softsf.vault.NativeVault.NativeVault Pages: 1 -->
<svg width="564pt" height="124pt"
 viewBox="0.00 0.00 564.00 123.50" xmlns="http://www.w3.org/2000/svg" xmlns:xlink="http://www.w3.org/1999/xlink">
<g id="graph0" class="graph" transform="scale(1 1) rotate(0) translate(4 119.5)">
<title>fr.softsf.vault.NativeVault.NativeVault</title>
<!-- Node1 -->
<g id="Node000001" class="node">
<title>Node1</title>
<g id="a_Node000001"><a xlink:title="Initializes a new instance of the native vault facade with a custom namespace.">
<polygon fill="#999999" stroke="#666666" points="143,-78 0,-78 0,-48 143,-48 143,-78"/>
<text text-anchor="start" x="8" y="-66" font-family="Helvetica,sans-Serif" font-size="10.00">fr.softsf.vault.NativeVault.</text>
<text text-anchor="middle" x="71.5" y="-55" font-family="Helvetica,sans-Serif" font-size="10.00">NativeVault</text>
</a>
</g>
</g>
<!-- Node2 -->
<g id="Node000002" class="node">
<title>Node2</title>
<g id="a_Node000002"><a xlink:href="classfr_1_1softsf_1_1vault_1_1NativeVault.html#ae902c95d7531746e89eaf4f53427c2d3" target="_top" xlink:title="Detects and returns the appropriate native vault strategy based on the operating system.">
<polygon fill="white" stroke="#666666" points="357,-115.5 183,-115.5 183,-96.5 357,-96.5 357,-115.5"/>
<text text-anchor="middle" x="270" y="-103.5" font-family="Helvetica,sans-Serif" font-size="10.00">fr.softsf.vault.NativeVault.detect</text>
</a>
</g>
</g>
<!-- Node1&#45;&gt;Node2 -->
<g id="edge1_Node000001_Node000002" class="edge">
<title>Node1&#45;&gt;Node2</title>
<g id="a_edge1_Node000001_Node000002"><a xlink:title=" ">
<path fill="none" stroke="#63b8ff" d="M138.65,-78.05C152,-81.05 165.95,-84.15 179,-87 190.1,-89.42 201.99,-91.97 213.36,-94.38"/>
<polygon fill="#63b8ff" stroke="#63b8ff" points="212.68,-97.81 223.19,-96.45 214.13,-90.96 212.68,-97.81"/>
</a>
</g>
</g>
<!-- Node3 -->
<g id="Node000003" class="node">
<title>Node3</title>
<g id="a_Node000003"><a xlink:href="classfr_1_1softsf_1_1vault_1_1NativeVault.html#a70a09e700fc761b5fb476840b7c85874" target="_top" xlink:title="Ensures that a strategy is available before performing operations.">
<polygon fill="white" stroke="#666666" points="358,-78 182,-78 182,-48 358,-48 358,-78"/>
<text text-anchor="start" x="190" y="-66" font-family="Helvetica,sans-Serif" font-size="10.00">fr.softsf.vault.NativeVault.ensure</text>
<text text-anchor="middle" x="270" y="-55" font-family="Helvetica,sans-Serif" font-size="10.00">Usable</text>
</a>
</g>
</g>
<!-- Node1&#45;&gt;Node3 -->
<g id="edge2_Node000001_Node000003" class="edge">
<title>Node1&#45;&gt;Node3</title>
<g id="a_edge2_Node000001_Node000003"><a xlink:title=" ">
<path fill="none" stroke="#63b8ff" d="M143.16,-63C152.47,-63 162.14,-63 171.8,-63"/>
<polygon fill="#63b8ff" stroke="#63b8ff" points="171.84,-66.5 181.84,-63 171.84,-59.5 171.84,-66.5"/>
</a>
</g>
</g>
<!-- Node4 -->
<g id="Node000004" class="node">
<title>Node4</title>
<g id="a_Node000004"><a xlink:href="classfr_1_1softsf_1_1vault_1_1NativeVault.html#a1129581ab9d0c26021bf92f3eb1d0d9a" target="_top" xlink:title="Executes the native vault integrity check sequence within a synchronized block to prevent race condit...">
<polygon fill="white" stroke="#666666" points="361,-30 179,-30 179,0 361,0 361,-30"/>
<text text-anchor="start" x="187" y="-18" font-family="Helvetica,sans-Serif" font-size="10.00">fr.softsf.vault.NativeVault.execute</text>
<text text-anchor="middle" x="270" y="-7" font-family="Helvetica,sans-Serif" font-size="10.00">IntegrityCheck</text>
</a>
</g>
</g>
<!-- Node1&#45;&gt;Node4 -->
<g id="edge3_Node000001_Node000004" class="edge">
<title>Node1&#45;&gt;Node4</title>
<g id="a_edge3_Node000001_Node000004"><a xlink:title=" ">
<path fill="none" stroke="#63b8ff" d="M134.13,-47.94C154.34,-43.01 176.97,-37.48 197.82,-32.39"/>
<polygon fill="#63b8ff" stroke="#63b8ff" points="198.7,-35.78 207.58,-30 197.04,-28.98 198.7,-35.78"/>
</a>
</g>
</g>
<!-- Node5 -->
<g id="Node000005" class="node">
<title>Node5</title>
<g id="a_Node000005"><a xlink:href="classfr_1_1softsf_1_1vault_1_1NativeVault.html#ab3cecf7a5e3a06a1e9a6ddcde54ede61" target="_top" xlink:title="Returns the integrity test key character array.">
<polygon fill="white" stroke="#666666" points="556,-30 397,-30 397,0 556,0 556,-30"/>
<text text-anchor="start" x="405" y="-18" font-family="Helvetica,sans-Serif" font-size="10.00">fr.softsf.vault.NativeVault.get</text>
<text text-anchor="middle" x="476.5" y="-7" font-family="Helvetica,sans-Serif" font-size="10.00">IntegrityTestKey</text>
</a>
</g>
</g>
<!-- Node4&#45;&gt;Node5 -->
<g id="edge4_Node000004_Node000005" class="edge">
<title>Node4&#45;&gt;Node5</title>
<g id="a_edge4_Node000004_Node000005"><a xlink:title=" ">
<path fill="none" stroke="#63b8ff" d="M361.29,-15C369.74,-15 378.29,-15 386.72,-15"/>
<polygon fill="#63b8ff" stroke="#63b8ff" points="386.92,-18.5 396.92,-15 386.92,-11.5 386.92,-18.5"/>
</a>
</g>
</g>
</g>
</svg>
