<?xml version="1.0" encoding="UTF-8" standalone="no"?>
<!DOCTYPE svg PUBLIC "-//W3C//DTD SVG 1.1//EN"
 "http://www.w3.org/Graphics/SVG/1.1/DTD/svg11.dtd">
<!-- Generated by graphviz version 2.43.0 (0)
 -->
<!-- Title: Graphical Class Hierarchy Pages: 1 -->
<svg width="322pt" height="134pt"
 viewBox="0.00 0.00 322.00 134.00" xmlns="http://www.w3.org/2000/svg" xmlns:xlink="http://www.w3.org/1999/xlink">
<g id="graph0" class="graph" transform="scale(1 1) rotate(0) translate(4 130)">
<title>Graphical Class Hierarchy</title>
<!-- Node0 -->
<g id="Node000000" class="node">
<title>Node0</title>
<g id="a_Node000000"><a xlink:title=" ">
<polygon fill="#e0e0e0" stroke="#999999" points="83,-72.5 0,-72.5 0,-53.5 83,-53.5 83,-72.5"/>
<text text-anchor="middle" x="41.5" y="-60.5" font-family="Helvetica,sans-Serif" font-size="10.00">VaultStrategy</text>
</a>
</g>
</g>
<!-- Node1 -->
<g id="Node000001" class="node">
<title>Node1</title>
<g id="a_Node000001"><a xlink:href="classfr_1_1softsf_1_1vault_1_1strategy_1_1LinuxKeyringStrategy.html" target="_top" xlink:title="Linux Keyring implementation of the VaultStrategy interface utilizing the FFM API with proper memory ...">
<polygon fill="white" stroke="#666666" points="279,-126 154,-126 154,-96 279,-96 279,-126"/>
<text text-anchor="start" x="162" y="-114" font-family="Helvetica,sans-Serif" font-size="10.00">fr.softsf.vault.strategy.</text>
<text text-anchor="middle" x="216.5" y="-103" font-family="Helvetica,sans-Serif" font-size="10.00">LinuxKeyringStrategy</text>
</a>
</g>
</g>
<!-- Node0&#45;&gt;Node1 -->
<g id="edge2_Node000000_Node000001" class="edge">
<title>Node0&#45;&gt;Node1</title>
<g id="a_edge2_Node000000_Node000001"><a xlink:title=" ">
<path fill="none" stroke="#63b8ff" d="M81.21,-75.64C93.27,-79.45 106.65,-83.53 119,-87 130.22,-90.15 142.23,-93.31 153.84,-96.25"/>
<polygon fill="#63b8ff" stroke="#63b8ff" points="82.03,-72.23 71.44,-72.53 79.91,-78.9 82.03,-72.23"/>
</a>
</g>
</g>
<!-- Node2 -->
<g id="Node000002" class="node">
<title>Node2</title>
<g id="a_Node000002"><a xlink:href="classfr_1_1softsf_1_1vault_1_1strategy_1_1MacKeychainStrategy.html" target="_top" xlink:title="macOS Keychain implementation of the VaultStrategy interface utilizing the FFM API with proper memory...">
<polygon fill="white" stroke="#666666" points="279,-78 154,-78 154,-48 279,-48 279,-78"/>
<text text-anchor="start" x="162" y="-66" font-family="Helvetica,sans-Serif" font-size="10.00">fr.softsf.vault.strategy.</text>
<text text-anchor="middle" x="216.5" y="-55" font-family="Helvetica,sans-Serif" font-size="10.00">MacKeychainStrategy</text>
</a>
</g>
</g>
<!-- Node0&#45;&gt;Node2 -->
<g id="edge3_Node000000_Node000002" class="edge">
<title>Node0&#45;&gt;Node2</title>
<g id="a_edge3_Node000000_Node000002"><a xlink:title=" ">
<path fill="none" stroke="#63b8ff" d="M93.28,-63C112.25,-63 134.01,-63 153.85,-63"/>
<polygon fill="#63b8ff" stroke="#63b8ff" points="93.06,-59.5 83.06,-63 93.06,-66.5 93.06,-59.5"/>
</a>
</g>
</g>
<!-- Node3 -->
<g id="Node000003" class="node">
<title>Node3</title>
<g id="a_Node000003"><a xlink:href="interfacefr_1_1softsf_1_1vault_1_1strategy_1_1WindowsCredentialManagerStrategy.html" target="_top" xlink:title="Polymorphic strategy interface for OS&#45;native credential store operations using character arrays for k...">
<polygon fill="white" stroke="#666666" points="314,-30 119,-30 119,0 314,0 314,-30"/>
<text text-anchor="start" x="127" y="-18" font-family="Helvetica,sans-Serif" font-size="10.00">fr.softsf.vault.strategy.</text>
<text text-anchor="middle" x="216.5" y="-7" font-family="Helvetica,sans-Serif" font-size="10.00">WindowsCredentialManagerStrategy</text>
</a>
</g>
</g>
<!-- Node0&#45;&gt;Node3 -->
<g id="edge4_Node000000_Node000003" class="edge">
<title>Node0&#45;&gt;Node3</title>
<g id="a_edge4_Node000000_Node000003"><a xlink:title=" ">
<path fill="none" stroke="#63b8ff" d="M81.21,-50.36C93.27,-46.55 106.65,-42.47 119,-39 129.89,-35.94 141.52,-32.88 152.8,-30.01"/>
<polygon fill="#63b8ff" stroke="#63b8ff" points="79.91,-47.1 71.44,-53.47 82.03,-53.77 79.91,-47.1"/>
</a>
</g>
</g>
</g>
</svg>
