<?xml version="1.0" encoding="UTF-8" standalone="no"?>
<!DOCTYPE svg PUBLIC "-//W3C//DTD SVG 1.1//EN"
 "http://www.w3.org/Graphics/SVG/1.1/DTD/svg11.dtd">
<!-- Generated by graphviz version 2.43.0 (0)
 -->
<!-- Title: fr.softsf.vault.strategy.WindowsCredentialManagerStrategy.exists Pages: 1 -->
<svg width="502pt" height="116pt"
 viewBox="0.00 0.00 502.00 115.50" xmlns="http://www.w3.org/2000/svg" xmlns:xlink="http://www.w3.org/1999/xlink">
<g id="graph0" class="graph" transform="scale(1 1) rotate(0) translate(4 111.5)">
<title>fr.softsf.vault.strategy.WindowsCredentialManagerStrategy.exists</title>
<!-- Node1 -->
<g id="Node000001" class="node">
<title>Node1</title>
<g id="a_Node000001"><a xlink:title=" ">
<polygon fill="#999999" stroke="#666666" points="226,-57 0,-57 0,-27 226,-27 226,-57"/>
<text text-anchor="start" x="8" y="-45" font-family="Helvetica,sans-Serif" font-size="10.00">fr.softsf.vault.strategy.</text>
<text text-anchor="middle" x="113" y="-34" font-family="Helvetica,sans-Serif" font-size="10.00">WindowsCredentialManagerStrategy.exists</text>
</a>
</g>
</g>
<!-- Node2 -->
<g id="Node000002" class="node">
<title>Node2</title>
<g id="a_Node000002"><a xlink:href="interfacefr_1_1softsf_1_1vault_1_1strategy_1_1WindowsCredentialManagerStrategy.html#a42aa5b0b2d44a40634fa73e594dfe41a" target="_top" xlink:title="Allocates a memory segment for the specified key.">
<polygon fill="white" stroke="#666666" points="485,-89.5 271,-89.5 271,-48.5 485,-48.5 485,-89.5"/>
<text text-anchor="start" x="279" y="-77.5" font-family="Helvetica,sans-Serif" font-size="10.00">fr.softsf.vault.strategy.</text>
<text text-anchor="start" x="279" y="-66.5" font-family="Helvetica,sans-Serif" font-size="10.00">WindowsCredentialManagerStrategy.key</text>
<text text-anchor="middle" x="378" y="-55.5" font-family="Helvetica,sans-Serif" font-size="10.00">Segment</text>
</a>
</g>
</g>
<!-- Node1&#45;&gt;Node2 -->
<g id="edge1_Node000001_Node000002" class="edge">
<title>Node1&#45;&gt;Node2</title>
<g id="a_edge1_Node000001_Node000002"><a xlink:title=" ">
<path fill="none" stroke="#63b8ff" d="M226.3,-53.53C237.74,-54.7 249.39,-55.9 260.88,-57.08"/>
<polygon fill="#63b8ff" stroke="#63b8ff" points="260.61,-60.57 270.92,-58.11 261.33,-53.61 260.61,-60.57"/>
</a>
</g>
</g>
<!-- Node3 -->
<g id="Node000003" class="node">
<title>Node3</title>
<g id="a_Node000003"><a xlink:href="interfacefr_1_1softsf_1_1vault_1_1strategy_1_1WindowsCredentialManagerStrategy.html#ad5034c8482e29c04b0fab86ed09f30f4" target="_top" xlink:title="Overwrites the specified memory segment with zeros to ensure security.">
<polygon fill="white" stroke="#666666" points="494,-30 262,-30 262,0 494,0 494,-30"/>
<text text-anchor="start" x="270" y="-18" font-family="Helvetica,sans-Serif" font-size="10.00">fr.softsf.vault.strategy.</text>
<text text-anchor="middle" x="378" y="-7" font-family="Helvetica,sans-Serif" font-size="10.00">WindowsCredentialManagerStrategy.zeroFill</text>
</a>
</g>
</g>
<!-- Node1&#45;&gt;Node3 -->
<g id="edge3_Node000001_Node000003" class="edge">
<title>Node1&#45;&gt;Node3</title>
<g id="a_edge3_Node000001_Node000003"><a xlink:title=" ">
<path fill="none" stroke="#63b8ff" d="M226.3,-30.47C234.73,-29.61 243.26,-28.73 251.77,-27.86"/>
<polygon fill="#63b8ff" stroke="#63b8ff" points="252.13,-31.34 261.72,-26.83 251.42,-24.37 252.13,-31.34"/>
</a>
</g>
</g>
<!-- Node2&#45;&gt;Node2 -->
<g id="edge2_Node000002_Node000002" class="edge">
<title>Node2&#45;&gt;Node2</title>
<g id="a_edge2_Node000002_Node000002"><a xlink:title=" ">
<path fill="none" stroke="#63b8ff" d="M329.48,-89.6C324.19,-99.15 340.36,-107.5 378,-107.5 401.53,-107.5 416.67,-104.24 423.42,-99.46"/>
<polygon fill="#63b8ff" stroke="#63b8ff" points="426.86,-100.19 426.52,-89.6 420.18,-98.09 426.86,-100.19"/>
</a>
</g>
</g>
</g>
</svg>
