<?xml version="1.0" encoding="UTF-8" standalone="no"?>
<!DOCTYPE svg PUBLIC "-//W3C//DTD SVG 1.1//EN"
 "http://www.w3.org/Graphics/SVG/1.1/DTD/svg11.dtd">
<!-- Generated by graphviz version 2.43.0 (0)
 -->
<!-- Title: fr.softsf.vault.strategy.WindowsCredentialManagerStrategy.store Pages: 1 -->
<svg width="501pt" height="175pt"
 viewBox="0.00 0.00 501.00 174.50" xmlns="http://www.w3.org/2000/svg" xmlns:xlink="http://www.w3.org/1999/xlink">
<g id="graph0" class="graph" transform="scale(1 1) rotate(0) translate(4 170.5)">
<title>fr.softsf.vault.strategy.WindowsCredentialManagerStrategy.store</title>
<!-- Node1 -->
<g id="Node000001" class="node">
<title>Node1</title>
<g id="a_Node000001"><a xlink:title=" ">
<polygon fill="#999999" stroke="#666666" points="221,-84 0,-84 0,-54 221,-54 221,-84"/>
<text text-anchor="start" x="8" y="-72" font-family="Helvetica,sans-Serif" font-size="10.00">fr.softsf.vault.strategy.</text>
<text text-anchor="middle" x="110.5" y="-61" font-family="Helvetica,sans-Serif" font-size="10.00">WindowsCredentialManagerStrategy.store</text>
</a>
</g>
</g>
<!-- Node2 -->
<g id="Node000002" class="node">
<title>Node2</title>
<g id="a_Node000002"><a xlink:href="interfacefr_1_1softsf_1_1vault_1_1strategy_1_1WindowsCredentialManagerStrategy.html#ac5575a1509ab55d2fb8786c67b90005e" target="_top" xlink:title="Allocates and populates a memory segment for the given character data.">
<polygon fill="white" stroke="#666666" points="493,-166.5 257,-166.5 257,-125.5 493,-125.5 493,-166.5"/>
<text text-anchor="start" x="265" y="-154.5" font-family="Helvetica,sans-Serif" font-size="10.00">fr.softsf.vault.strategy.</text>
<text text-anchor="start" x="265" y="-143.5" font-family="Helvetica,sans-Serif" font-size="10.00">WindowsCredentialManagerStrategy.allocate</text>
<text text-anchor="middle" x="375" y="-132.5" font-family="Helvetica,sans-Serif" font-size="10.00">Segment</text>
</a>
</g>
</g>
<!-- Node1&#45;&gt;Node2 -->
<g id="edge1_Node000001_Node000002" class="edge">
<title>Node1&#45;&gt;Node2</title>
<g id="a_edge1_Node000001_Node000002"><a xlink:title=" ">
<path fill="none" stroke="#63b8ff" d="M154.21,-84.04C183.06,-93.96 222.11,-106.94 257,-117 263.84,-118.97 270.93,-120.94 278.09,-122.85"/>
<polygon fill="#63b8ff" stroke="#63b8ff" points="277.3,-126.26 287.86,-125.44 279.09,-119.5 277.3,-126.26"/>
</a>
</g>
</g>
<!-- Node3 -->
<g id="Node000003" class="node">
<title>Node3</title>
<g id="a_Node000003"><a xlink:href="interfacefr_1_1softsf_1_1vault_1_1strategy_1_1WindowsCredentialManagerStrategy.html#a42aa5b0b2d44a40634fa73e594dfe41a" target="_top" xlink:title="Allocates a memory segment for the specified key.">
<polygon fill="white" stroke="#666666" points="482,-89.5 268,-89.5 268,-48.5 482,-48.5 482,-89.5"/>
<text text-anchor="start" x="276" y="-77.5" font-family="Helvetica,sans-Serif" font-size="10.00">fr.softsf.vault.strategy.</text>
<text text-anchor="start" x="276" y="-66.5" font-family="Helvetica,sans-Serif" font-size="10.00">WindowsCredentialManagerStrategy.key</text>
<text text-anchor="middle" x="375" y="-55.5" font-family="Helvetica,sans-Serif" font-size="10.00">Segment</text>
</a>
</g>
</g>
<!-- Node1&#45;&gt;Node3 -->
<g id="edge2_Node000001_Node000003" class="edge">
<title>Node1&#45;&gt;Node3</title>
<g id="a_edge2_Node000001_Node000003"><a xlink:title=" ">
<path fill="none" stroke="#63b8ff" d="M221.3,-69C233.38,-69 245.7,-69 257.85,-69"/>
<polygon fill="#63b8ff" stroke="#63b8ff" points="258,-72.5 268,-69 258,-65.5 258,-72.5"/>
</a>
</g>
</g>
<!-- Node4 -->
<g id="Node000004" class="node">
<title>Node4</title>
<g id="a_Node000004"><a xlink:href="interfacefr_1_1softsf_1_1vault_1_1strategy_1_1WindowsCredentialManagerStrategy.html#ad5034c8482e29c04b0fab86ed09f30f4" target="_top" xlink:title="Overwrites the specified memory segment with zeros to ensure security.">
<polygon fill="white" stroke="#666666" points="491,-30 259,-30 259,0 491,0 491,-30"/>
<text text-anchor="start" x="267" y="-18" font-family="Helvetica,sans-Serif" font-size="10.00">fr.softsf.vault.strategy.</text>
<text text-anchor="middle" x="375" y="-7" font-family="Helvetica,sans-Serif" font-size="10.00">WindowsCredentialManagerStrategy.zeroFill</text>
</a>
</g>
</g>
<!-- Node1&#45;&gt;Node4 -->
<g id="edge4_Node000001_Node000004" class="edge">
<title>Node1&#45;&gt;Node4</title>
<g id="a_edge4_Node000001_Node000004"><a xlink:title=" ">
<path fill="none" stroke="#63b8ff" d="M184.62,-53.96C217.62,-47.17 256.76,-39.12 290.87,-32.1"/>
<polygon fill="#63b8ff" stroke="#63b8ff" points="291.73,-35.5 300.82,-30.05 290.32,-28.64 291.73,-35.5"/>
</a>
</g>
</g>
<!-- Node3&#45;&gt;Node3 -->
<g id="edge3_Node000003_Node000003" class="edge">
<title>Node3&#45;&gt;Node3</title>
<g id="a_edge3_Node000003_Node000003"><a xlink:title=" ">
<path fill="none" stroke="#63b8ff" d="M326.48,-89.6C321.19,-99.15 337.36,-107.5 375,-107.5 398.53,-107.5 413.67,-104.24 420.42,-99.46"/>
<polygon fill="#63b8ff" stroke="#63b8ff" points="423.86,-100.19 423.52,-89.6 417.18,-98.09 423.86,-100.19"/>
</a>
</g>
</g>
</g>
</svg>
